# File created by Blade
# Date/Time:  Tue Sep 30 19:09:21 2014
#---------------------------------------------------------
:version 1.10
:name HOM
:units
  mass 1.0
  length 1.000000
  angle deg
:documentation
     Acclaim Skeleton File
:root
   axis xyz
   order TX TY TZ RX RY RZ
   position 0.000000 0.000000 0.000000
   orientation 0 0 0
:bonedata
   begin
      id 1
      name Spine_dum
      direction 0.000000 1.000000 0.000000
      length 7.508948
      axis 0.0 0.0 0.0 xyz
   end
   begin
      id 2
      name LeftUpLeg_dum
      direction 1.000000 0.000000 0.000000
      length 3.000560
      axis 0.0 0.0 0.0 xyz
   end
   begin
      id 3
      name RightUpLeg_dum
      direction -1.000000 0.000000 0.000000
      length 3.000560
      axis 0.0 0.0 0.0 xyz
   end
   begin
      id 4
      name Spine
      direction 0.000000 1.000000 0.000000
      length 0.000000
      axis 0.0 0.0 0.0 xyz
      dof rx ry rz
   end
   begin
      id 5
      name Spine_dum1
      direction 0.000000 1.000000 0.000000
      length 13.861154
      axis 0.0 0.0 0.0 xyz
   end
   begin
      id 6
      name Spine_dum2
      direction 0.000000 1.000000 0.000000
      length 8.204781
      axis 0.0 0.0 0.0 xyz
   end
   begin
      id 7
      name Spine_dum3
      direction 0.000000 1.000000 0.000000
      length 8.204781
      axis 0.0 0.0 0.0 xyz
   end
   begin
      id 8
      name Head
      direction 0.000000 1.000000 0.000000
      length 4.527550
      axis 0.0 0.0 0.0 xyz
      dof rx ry rz
   end
   begin
      id 9
      name LeftShoulder
      direction 1.000000 0.000000 0.000000
      length 6.635956
      axis 0.0 0.0 -90.0 xyz
      dof rx ry rz
   end
   begin
      id 10
      name LeftArm
      direction 1.000000 0.000000 0.000000
      length 10.274218
      axis 0.0 0.0 -90.0 xyz
      dof rx ry rz
   end
   begin
      id 11
      name LeftForeArm
      direction 1.000000 0.000000 0.000000
      length 8.522147
      axis 0.0 0.0 -90.0 xyz
      dof ry rz rx
   end
   begin
      id 12
      name LeftHand
      direction 0.000000 0.000000 0.000000
      length 0.000000
      axis 0.0 0.0 -90.0 xyz
      dof rx ry rz
   end
   begin
      id 13
      name LeftHand_dum1
      direction 0.000000 0.000000 0.000000
      length 0.000000
      axis 0.0 0.0 -90.0 xyz
   end
   begin
      id 14
      name LeftHand_dum2
      direction 1.000000 0.000000 0.000000
      length 3.937000
      axis 0.0 0.0 -90.0 xyz
   end
   begin
      id 15
      name LeftHandThumb1
      direction 0.000000 0.000000 1.000000
      length 3.937000
      axis 0.0 0.0 -90.0 xyz
      dof rx rz ry
   end
   begin
      id 16
      name RightShoulder
      direction -1.000000 0.000000 0.000000
      length 6.635956
      axis 0.0 0.0 90.0 xyz
      dof rx ry rz
   end
   begin
      id 17
      name RightArm
      direction -1.000000 0.000000 0.000000
      length 10.274218
      axis 0.0 0.0 90.0 xyz
      dof rx ry rz
   end
   begin
      id 18
      name RightForeArm
      direction -1.000000 0.000000 0.000000
      length 8.522147
      axis 0.0 0.0 90.0 xyz
      dof ry rz rx
   end
   begin
      id 19
      name RightHand
      direction 0.000000 0.000000 0.000000
      length 0.000000
      axis 0.0 0.0 90.0 xyz
      dof rx ry rz
   end
   begin
      id 20
      name RightHand_dum1
      direction 0.000000 0.000000 0.000000
      length 0.000000
      axis 0.0 0.0 90.0 xyz
   end
   begin
      id 21
      name RightHand_dum2
      direction -1.000000 0.000000 0.000000
      length 3.937000
      axis 0.0 0.0 90.0 xyz
   end
   begin
      id 22
      name RightHandThumb1
      direction 0.000000 0.000000 1.000000
      length 3.937000
      axis 0.0 0.0 90.0 xyz
      dof rx rz ry
   end
   begin
      id 23
      name LeftUpLeg
      direction 0.000000 -1.000000 0.000000
      length 16.490845
      axis 0.0 0.0 0.0 xyz
      dof rx ry rz
   end
   begin
      id 24
      name LeftLeg
      direction 0.000000 -1.000000 0.000000
      length 14.556576
      axis 0.0 0.0 0.0 xyz
      dof rx ry rz
   end
   begin
      id 25
      name LeftFoot
      direction 0.000000 -0.258819 0.965926
      length 4.831116
      axis 15.0 0.0 0.0 xyz
      dof rx ry rz
   end
   begin
      id 26
      name LeftToeBase
      direction 0.000000 0.000000 1.000000
      length 2.952750
      axis 0.0 0.0 0.0 xyz
      dof rx ry rz
   end
   begin
      id 27
      name RightUpLeg
      direction 0.000000 -1.000000 0.000000
      length 16.490845
      axis 0.0 0.0 0.0 xyz
      dof rx ry rz
   end
   begin
      id 28
      name RightLeg
      direction 0.000000 -1.000000 0.000000
      length 14.556576
      axis 0.0 0.0 0.0 xyz
      dof rx ry rz
   end
   begin
      id 29
      name RightFoot
      direction 0.000000 -0.258819 0.965926
      length 4.831116
      axis 15.0 0.0 0.0 xyz
      dof rx ry rz
   end
   begin
      id 30
      name RightToeBase
      direction 0.000000 0.000000 1.000000
      length 2.952750
      axis 0.0 0.0 0.0 xyz
      dof rx ry rz
   end
:hierarchy
   begin
      root Spine_dum LeftUpLeg_dum RightUpLeg_dum
      Spine_dum Spine
      LeftUpLeg_dum LeftUpLeg
      RightUpLeg_dum RightUpLeg
      Spine Spine_dum1 Spine_dum2 Spine_dum3
      Spine_dum1 Head
      Spine_dum2 LeftShoulder
      Spine_dum3 RightShoulder
      LeftShoulder LeftArm
      LeftArm LeftForeArm
      LeftForeArm LeftHand
      LeftHand LeftHand_dum1 LeftHand_dum2
      LeftHand_dum1 LeftHandThumb1
      RightShoulder RightArm
      RightArm RightForeArm
      RightForeArm RightHand
      RightHand RightHand_dum1 RightHand_dum2
      RightHand_dum1 RightHandThumb1
      LeftUpLeg LeftLeg
      LeftLeg LeftFoot
      LeftFoot LeftToeBase
      RightUpLeg RightLeg
      RightLeg RightFoot
      RightFoot RightToeBase
   end

# File created by Blade
# Date/Time:  Wed Sep 24 19:53:44 2014
# Frame Rate: 120.000 fps
#------------------------------------------------------
:FULLY-SPECIFIED
:DEGREES
279
root -6.341071 32.877122 -4.213220 8.600037 -6.713708 -0.992592
Spine -15.076646 -21.120610 7.131429
Head -2.592851 37.362079 1.369603
LeftShoulder 2.772653 -13.238430 39.024636
LeftArm 98.005187 -13.056845 -115.834018
LeftForeArm -47.949595 0.000000 99.280055
LeftHand -12.441786 -0.000000 -3.552820
LeftHandThumb1 -26.253704 0.000000 33.147579
RightShoulder -17.492985 11.040242 -19.231221
RightArm -11.020548 -30.673365 89.324623
RightForeArm -21.559590 -0.000000 20.781174
RightHand -5.903763 -0.000000 11.868368
RightHandThumb1 -24.326973 -0.000000 -32.862282
LeftUpLeg -0.504241 14.047385 3.874664
LeftLeg -2.377985 -0.000000 0.000000
LeftFoot -10.440875 7.325372 -18.499995
LeftToeBase 11.496520 -0.000000 -0.000000
RightUpLeg -5.545574 -1.758954 -3.570742
RightLeg 1.999126 -0.000000 -0.000000
RightFoot -7.528631 -1.877723 -14.553801
RightToeBase -1.375939 -0.000000 0.000000
280
root -6.340731 32.877679 -4.213900 8.600630 -6.708382 -0.994940
Spine -15.070793 -21.112014 7.137682
Head -2.611212 37.377115 1.367281
LeftShoulder 2.728554 -13.381406 39.050855
LeftArm 97.827683 -13.128898 -115.822320
LeftForeArm -47.949782 -0.000000 99.310763
LeftHand -12.428811 -0.000000 -3.543155
LeftHandThumb1 -26.253704 0.000000 33.147579
RightShoulder -17.491083 11.050162 -19.213880
RightArm -11.016873 -30.724315 89.343213
RightForeArm -21.543606 -0.000000 20.769617
RightHand -5.901691 -0.000000 11.869144
RightHandThumb1 -24.326973 -0.000000 -32.862282
LeftUpLeg -0.512097 14.052529 3.875094
LeftLeg -2.366025 -0.000000 0.000000
LeftFoot -10.425504 7.325238 -18.414884
LeftToeBase 11.448463 -0.000000 -0.000000
RightUpLeg -5.547291 -1.765271 -3.567075
RightLeg 1.998447 -0.000000 -0.000000
RightFoot -7.519948 -1.881173 -14.572226
RightToeBase -1.403924 -0.000000 0.000000
281
root -6.340732 32.877323 -4.214391 8.598249 -6.704810 -0.994828
Spine -15.068990 -21.085481 7.138289
Head -2.613292 37.338379 1.363903
LeftShoulder 2.733496 -13.168786 39.002168
LeftArm 98.043684 -13.018865 -115.818660
LeftForeArm -47.951424 -0.000000 99.297276
LeftHand -12.442331 -0.000000 -3.511996
LeftHandThumb1 -26.253704 0.000000 33.147579
RightShoulder -17.479846 11.054626 -19.208618
RightArm -11.036979 -30.721869 89.374888
RightForeArm -21.562025 -0.000000 20.784481
RightHand -5.954364 0.000000 11.840585
RightHandThumb1 -24.326973 -0.000000 -32.862282
LeftUpLeg -0.510881 14.044847 3.878483
LeftLeg -2.377059 -0.000000 0.000000
LeftFoot -10.366876 7.252106 -18.553661
LeftToeBase 10.997570 -0.000000 -0.000000
RightUpLeg -5.541063 -1.765177 -3.567879
RightLeg 1.989849 -0.000000 -0.000000
RightFoot -7.517274 -1.882268 -14.551392
RightToeBase -1.392576 -0.000000 0.000000
282
root -6.340232 32.877330 -4.215522 8.598293 -6.702582 -0.991160
Spine -15.068098 -21.081322 7.137050
Head -2.611252 37.337101 1.375064
LeftShoulder 2.715324 -13.127572 38.999992
LeftArm 98.065827 -12.994962 -115.822617
LeftForeArm -47.996826 -0.000000 99.311853
LeftHand -12.444687 -0.000000 -3.487227
LeftHandThumb1 -26.253704 0.000000 33.147579
RightShoulder -17.466114 11.067609 -19.195513
RightArm -11.039590 -30.774315 89.401327
RightForeArm -21.497472 -0.000000 20.777598
RightHand -6.006864 0.000000 11.808988
RightHandThumb1 -24.326973 -0.000000 -32.862282
LeftUpLeg -0.520427 14.052073 3.872780
LeftLeg -2.362942 -0.000000 0.000000
LeftFoot -10.385345 7.261097 -18.513762
LeftToeBase 11.065059 -0.000000 -0.000000
RightUpLeg -5.544743 -1.763463 -3.571542
RightLeg 1.993813 -0.000000 -0.000000
RightFoot -7.516582 -1.885787 -14.552500
RightToeBase -1.415225 -0.000000 0.000000
